<?xml version="1.0" encoding="utf-8"?>
<!-- Generator: Adobe Illustrator 18.0.0, SVG Export Plug-In . SVG Version: 6.00 Build 0)  -->
<!DOCTYPE svg PUBLIC "-//W3C//DTD SVG 1.1//EN" "http://www.w3.org/Graphics/SVG/1.1/DTD/svg11.dtd">
<svg version="1.1" id="Layer_1" xmlns="http://www.w3.org/2000/svg" xmlns:xlink="http://www.w3.org/1999/xlink" x="0px" y="0px"
	 viewBox="0 0 27 18" enable-background="new 0 0 27 18" xml:space="preserve">
<path fill="#010101" d="M25.7,0.5H0.2v17.1h26.7V0.5H25.7z M24.7,1.5L14.4,11.8c-0.5,0.5-1.3,0.5-1.8,0L2.3,1.5H24.7L24.7,1.5z
	 M1.2,2l6.9,6.9l-6.9,6.9V2L1.2,2z M2.1,16.5l6.8-6.8l3,2.9c0.4,0.4,1,0.7,1.6,0.7c0.6,0,1.2-0.2,1.6-0.7l3-3l6.8,6.8L2.1,16.5
	L2.1,16.5z M25.8,15.8l-6.9-6.9L25.8,2V15.8z"/>
</svg>
