<?xml version="1.0" encoding="utf-8"?>
<!-- Generator: Adobe Illustrator 18.0.0, SVG Export Plug-In . SVG Version: 6.00 Build 0)  -->
<!DOCTYPE svg PUBLIC "-//W3C//DTD SVG 1.1//EN" "http://www.w3.org/Graphics/SVG/1.1/DTD/svg11.dtd">
<svg version="1.1" id="Layer_1" xmlns="http://www.w3.org/2000/svg" xmlns:xlink="http://www.w3.org/1999/xlink" x="0px" y="0px"
	 viewBox="0 0 22 32" enable-background="new 0 0 22 32" xml:space="preserve">
<path fill="#010101" d="M11,1.1c5.3,0,9.6,4.3,9.6,9.6c0,1.7-0.4,3.3-1.3,4.8L11,29.9L2.7,15.5c-0.8-1.5-1.3-3.1-1.3-4.8
	C1.4,5.4,5.7,1.1,11,1.1L11,1.1z M11,14.4c2.1,0,3.7-1.7,3.7-3.7c0-2.1-1.7-3.7-3.7-3.7c-2.1,0-3.7,1.7-3.7,3.7
	C7.3,12.7,8.9,14.4,11,14.4z M11,0C5.1,0,0.3,4.8,0.3,10.7c0,1.9,0.5,3.8,1.4,5.3L11,32l9.2-16c0.9-1.6,1.4-3.4,1.4-5.3
	C21.7,4.8,16.9,0,11,0L11,0L11,0z M11,13.3c-1.5,0-2.7-1.2-2.7-2.7C8.3,9.2,9.5,8,11,8c1.5,0,2.7,1.2,2.7,2.7
	C13.7,12.1,12.5,13.3,11,13.3L11,13.3z"/>
</svg>
