<?xml version="1.0" encoding="utf-8"?>
<!-- Generator: Adobe Illustrator 18.0.0, SVG Export Plug-In . SVG Version: 6.00 Build 0)  -->
<!DOCTYPE svg PUBLIC "-//W3C//DTD SVG 1.1//EN" "http://www.w3.org/Graphics/SVG/1.1/DTD/svg11.dtd">
<svg version="1.1" id="Layer_1" xmlns="http://www.w3.org/2000/svg" xmlns:xlink="http://www.w3.org/1999/xlink" x="0px" y="0px"
	 viewBox="0 0 18 29" enable-background="new 0 0 18 29" xml:space="preserve">
<path fill="#010101" d="M16.1,0.1H1.9c-0.8,0-1.4,0.6-1.4,1.4v25.9c0,0.8,0.6,1.4,1.4,1.4h14.2c0.8,0,1.4-0.6,1.4-1.4V1.5
	C17.5,0.8,16.9,0.1,16.1,0.1z M16.5,27.5c0,0.2-0.2,0.4-0.4,0.4H1.9c-0.2,0-0.4-0.2-0.4-0.4v-5h14.9L16.5,27.5L16.5,27.5z
	 M16.5,21.4H1.5v-17h14.9V21.4z M16.5,3.3H1.5V1.5c0-0.2,0.2-0.4,0.4-0.4h14.2c0.2,0,0.4,0.2,0.4,0.4L16.5,3.3L16.5,3.3z"/>
<path fill="#010101" d="M7.4,24.6h3.2v1.1H7.4V24.6z"/>
</svg>
